<?xml version="1.0" encoding="UTF-8" standalone="no"?>
<svg width="100px" height="100px" viewBox="0 0 100 100" version="1.1" xmlns="http://www.w3.org/2000/svg" xmlns:xlink="http://www.w3.org/1999/xlink" xmlns:sketch="http://www.bohemiancoding.com/sketch/ns">
    <!-- Generator: Sketch 3.3.3 (12081) - http://www.bohemiancoding.com/sketch -->
    <title>Imported Layers</title>
    <desc>Created with Sketch.</desc>
    <defs></defs>
    <g id="HOME" stroke="none" stroke-width="1" fill="none" fill-rule="evenodd" sketch:type="MSPage">
        <g id="Homepage-2" sketch:type="MSArtboardGroup" transform="translate(-779.000000, -945.000000)">
            <g id="Imported-Layers" sketch:type="MSLayerGroup" transform="translate(779.000000, 945.000000)">
                <path d="M99.7796117,50.1864078 C99.7796117,77.5339806 77.6097087,99.7038835 50.2631068,99.7038835 C22.9145631,99.7038835 0.745631068,77.5339806 0.745631068,50.1864078 C0.745631068,22.838835 22.9145631,0.669902913 50.2631068,0.669902913 C77.6097087,0.669902913 99.7796117,22.838835 99.7796117,50.1864078" id="Fill-1" fill="#FFFFC1" sketch:type="MSShapeGroup"></path>
                <path d="M75.4883495,64.0864078 C75.4883495,66.8582524 73.2757282,69.1067961 70.5436893,69.1067961 L29.9883495,69.1067961 C27.2582524,69.1067961 25.0427184,66.8582524 25.0427184,64.0864078 L25.0427184,36.2873786 C25.0427184,33.515534 27.2582524,31.2669903 29.9883495,31.2669903 L70.5436893,31.2669903 C73.2757282,31.2669903 75.4883495,33.515534 75.4883495,36.2873786 L75.4883495,64.0864078" id="Fill-2" fill="#48CFC2" sketch:type="MSShapeGroup"></path>
                <path d="M36.5184466,36.0543689 C36.5184466,36.5194175 36.1378641,36.9 35.6718447,36.9 L30.2281553,36.9 C29.7631068,36.9 29.3815534,36.5194175 29.3815534,36.0543689 L29.3815534,34.8417476 C29.3815534,34.3747573 29.7631068,33.9951456 30.2281553,33.9951456 L35.6718447,33.9951456 C36.1378641,33.9951456 36.5184466,34.3747573 36.5184466,34.8417476 L36.5184466,36.0543689" id="Fill-3" fill="#FFFFFF" sketch:type="MSShapeGroup"></path>
                <path d="M72.8650485,38.6 C72.8650485,39.0640777 72.4834951,39.4456311 72.0184466,39.4456311 L65.0815534,39.4456311 C64.615534,39.4456311 64.2349515,39.0640777 64.2349515,38.6 L64.2349515,34.7990291 C64.2349515,34.3330097 64.615534,33.9524272 65.0815534,33.9524272 L72.0184466,33.9524272 C72.4834951,33.9524272 72.8650485,34.3330097 72.8650485,34.7990291 L72.8650485,38.6" id="Fill-4" fill="#FFFFFF" sketch:type="MSShapeGroup"></path>
                <path d="M41.3708738,35.4330097 C41.3708738,36.2621359 40.6990291,36.9339806 39.8699029,36.9339806 C39.0407767,36.9339806 38.3679612,36.2621359 38.3679612,35.4330097 C38.3679612,34.6038835 39.0407767,33.9320388 39.8699029,33.9320388 C40.6990291,33.9320388 41.3708738,34.6038835 41.3708738,35.4330097" id="Fill-5" fill="#FFFFFF" sketch:type="MSShapeGroup"></path>
                <path d="M25.0320388,42.4524272 L75.492233,42.4524272 L75.492233,64.2019417 L25.0320388,64.2019417 L25.0320388,42.4524272 Z" id="Fill-6" fill="#637988" sketch:type="MSShapeGroup"></path>
                <path d="M65.2067961,53.6776699 C65.2067961,61.8660194 58.568932,68.5029126 50.3815534,68.5029126 C42.1941748,68.5029126 35.5572816,61.8660194 35.5572816,53.6776699 C35.5572816,45.4902913 42.1941748,38.8524272 50.3815534,38.8524272 C58.568932,38.8524272 65.2067961,45.4902913 65.2067961,53.6776699" id="Fill-7" fill="#FFFFFF" sketch:type="MSShapeGroup"></path>
                <path d="M62.131068,53.6776699 C62.131068,60.1669903 56.8699029,65.4271845 50.3815534,65.4271845 C43.8932039,65.4271845 38.6330097,60.1669903 38.6330097,53.6776699 C38.6330097,47.1883495 43.8932039,41.9291262 50.3815534,41.9291262 C56.8699029,41.9291262 62.131068,47.1883495 62.131068,53.6776699" id="Fill-8" fill="#48CFC2" sketch:type="MSShapeGroup"></path>
                <path d="M59.4864078,53.7300971 C59.4864078,58.6728155 55.4796117,62.6786408 50.5368932,62.6786408 C45.5961165,62.6786408 41.5883495,58.6728155 41.5883495,53.7300971 C41.5883495,48.7883495 45.5961165,44.7825243 50.5368932,44.7825243 C55.4796117,44.7825243 59.4864078,48.7883495 59.4864078,53.7300971" id="Fill-9" fill="#637988" sketch:type="MSShapeGroup"></path>
            </g>
        </g>
    </g>
</svg>