<?xml version="1.0" encoding="UTF-8" standalone="no"?>
<svg width="100px" height="100px" viewBox="0 0 100 100" version="1.1" xmlns="http://www.w3.org/2000/svg" xmlns:xlink="http://www.w3.org/1999/xlink" xmlns:sketch="http://www.bohemiancoding.com/sketch/ns">
    <!-- Generator: Sketch 3.3.3 (12081) - http://www.bohemiancoding.com/sketch -->
    <title>Imported Layers</title>
    <desc>Created with Sketch.</desc>
    <defs></defs>
    <g id="HOME" stroke="none" stroke-width="1" fill="none" fill-rule="evenodd" sketch:type="MSPage">
        <g id="Homepage-2" sketch:type="MSArtboardGroup" transform="translate(-570.000000, -945.000000)">
            <g id="Imported-Layers" sketch:type="MSLayerGroup" transform="translate(570.000000, 945.000000)">
                <path d="M99.7563107,49.6601942 C99.7563107,77.007767 77.5873786,99.176699 50.2398058,99.176699 C22.892233,99.176699 0.722330097,77.007767 0.722330097,49.6601942 C0.722330097,22.3126214 22.892233,0.142718447 50.2398058,0.142718447 C77.5873786,0.142718447 99.7563107,22.3126214 99.7563107,49.6601942" id="Fill-1" fill="#FFFFC1" sketch:type="MSShapeGroup"></path>
                <path d="M80.292233,66.0019417 L71.0728155,67.131068 L69.9436893,76.3504854 L55.1398058,61.5466019 L65.4893204,51.1980583 L80.292233,66.0019417" id="Fill-2" fill="#637988" sketch:type="MSShapeGroup"></path>
                <path d="M20.1854369,66.0019417 L29.4067961,67.131068 L30.5349515,76.3504854 L45.338835,61.5466019 L34.9902913,51.1980583 L20.1854369,66.0019417" id="Fill-3" fill="#637988" sketch:type="MSShapeGroup"></path>
                <path d="M74.292233,45.8514563 L70.1174757,49.2145631 L72.8961165,53.8 L67.8194175,55.5262136 L68.8553398,60.7854369 L63.4961165,60.6747573 L62.6786408,65.9728155 L57.6796117,64.038835 L55.0932039,68.7339806 L51.0601942,65.1990291 L47.0262136,68.7330097 L44.4398058,64.0378641 L39.4398058,65.9728155 L38.623301,60.6737864 L33.2631068,60.784466 L34.3,55.5242718 L29.2242718,53.7990291 L32.0029126,49.2135922 L27.8281553,45.8514563 L32.0029126,42.4873786 L29.2242718,37.9029126 L34.3009709,36.176699 L33.2640777,30.9165049 L38.6242718,31.0281553 L39.4417476,25.7291262 L44.4407767,27.6640777 L47.0271845,22.968932 L51.0601942,26.5029126 L55.0941748,22.968932 L57.6805825,27.6650485 L62.6796117,25.7300971 L63.4970874,31.0291262 L68.8572816,30.9174757 L67.8203883,36.1776699 L72.8961165,37.9038835 L70.1174757,42.4883495 L74.292233,45.8514563" id="Fill-4" fill="#48CFC2" sketch:type="MSShapeGroup"></path>
                <path d="M65.8427184,45.8514563 C65.8427184,54.015534 59.2242718,60.6339806 51.0601942,60.6339806 C42.8961165,60.6339806 36.2776699,54.015534 36.2776699,45.8514563 C36.2776699,37.6873786 42.8961165,31.068932 51.0601942,31.068932 C59.2242718,31.068932 65.8427184,37.6873786 65.8427184,45.8514563" id="Fill-5" fill="#48CFC2" sketch:type="MSShapeGroup"></path>
                <path d="M51.0601942,61.1194175 C42.6417476,61.1194175 35.792233,54.2699029 35.792233,45.8514563 C35.792233,37.4330097 42.6417476,30.5834951 51.0601942,30.5834951 C59.4786408,30.5834951 66.3281553,37.4330097 66.3281553,45.8514563 C66.3281553,54.2699029 59.4786408,61.1194175 51.0601942,61.1194175 L51.0601942,61.1194175 Z M51.0601942,31.5543689 C43.176699,31.5543689 36.7631068,37.9679612 36.7631068,45.8514563 C36.7631068,53.7349515 43.176699,60.1485437 51.0601942,60.1485437 C58.9436893,60.1485437 65.3572816,53.7349515 65.3572816,45.8514563 C65.3572816,37.9679612 58.9436893,31.5543689 51.0601942,31.5543689 L51.0601942,31.5543689 Z" id="Fill-6" fill="#FFFFFF" sketch:type="MSShapeGroup"></path>
                <path d="M45.7262136,40.2019417 L45.7262136,44.3718447 L48.7737864,43.423301 L48.7737864,54.6708738 L54.2990291,54.6708738 L54.2990291,37.5349515 L45.7262136,40.2019417" id="Fill-7" fill="#FFFFFF" sketch:type="MSShapeGroup"></path>
            </g>
        </g>
    </g>
</svg>