<?xml version="1.0" encoding="UTF-8" standalone="no"?>
<svg width="100px" height="100px" viewBox="0 0 100 100" version="1.1" xmlns="http://www.w3.org/2000/svg" xmlns:xlink="http://www.w3.org/1999/xlink" xmlns:sketch="http://www.bohemiancoding.com/sketch/ns">
    <!-- Generator: Sketch 3.3.3 (12081) - http://www.bohemiancoding.com/sketch -->
    <title>Imported Layers</title>
    <desc>Created with Sketch.</desc>
    <defs></defs>
    <g id="HOME" stroke="none" stroke-width="1" fill="none" fill-rule="evenodd" sketch:type="MSPage">
        <g id="Homepage-2" sketch:type="MSArtboardGroup" transform="translate(-371.000000, -945.000000)">
            <g id="Imported-Layers" sketch:type="MSLayerGroup" transform="translate(371.000000, 945.000000)">
                <path d="M99.8407767,50.2339806 C99.8407767,77.5815534 77.6718447,99.7504854 50.323301,99.7504854 C22.9757282,99.7504854 0.806796117,77.5815534 0.806796117,50.2339806 C0.806796117,22.8864078 22.9757282,0.716504854 50.323301,0.716504854 C77.6718447,0.716504854 99.8407767,22.8864078 99.8407767,50.2339806" id="Fill-1" fill="#FFFFC1" sketch:type="MSShapeGroup"></path>
                <path d="M55.6262136,40.0961165 L45.0213592,40.0961165 C42.8815534,40.0961165 41.1407767,38.3553398 41.1407767,36.2145631 L41.1407767,29.9300971 C41.1407767,27.7893204 42.8815534,26.0495146 45.0213592,26.0495146 L55.6262136,26.0495146 C57.7660194,26.0495146 59.5067961,27.7893204 59.5067961,29.9300971 L59.5067961,36.2145631 C59.5067961,38.3553398 57.7660194,40.0961165 55.6262136,40.0961165 L55.6262136,40.0961165 Z M45.0213592,27.9796117 C43.9466019,27.9796117 43.0718447,28.8543689 43.0718447,29.9300971 L43.0718447,36.2145631 C43.0718447,37.2902913 43.9466019,38.1650485 45.0213592,38.1650485 L55.6262136,38.1650485 C56.7009709,38.1650485 57.5757282,37.2902913 57.5757282,36.2145631 L57.5757282,29.9300971 C57.5757282,28.8543689 56.7009709,27.9796117 55.6262136,27.9796117 L45.0213592,27.9796117 L45.0213592,27.9796117 Z" id="Fill-2" fill="#637988" sketch:type="MSShapeGroup"></path>
                <path d="M67.9796117,73.0970874 L32.6679612,73.0970874 C27.3058252,73.0970874 22.9592233,68.7504854 22.9592233,63.3893204 L22.9592233,42.4592233 C22.9592233,37.0970874 27.3058252,32.7504854 32.6679612,32.7504854 L67.9796117,32.7504854 C73.3417476,32.7504854 77.6883495,37.0970874 77.6883495,42.4592233 L77.6883495,63.3893204 C77.6883495,68.7504854 73.3417476,73.0970874 67.9796117,73.0970874" id="Fill-3" fill="#48CFC2" sketch:type="MSShapeGroup"></path>
                <path d="M47.5883495,45.5368932 L53.0592233,45.5368932 L53.0592233,60.3116505 L47.5883495,60.3116505 L47.5883495,45.5368932 Z" id="Fill-4" fill="#FFFFFF" sketch:type="MSShapeGroup"></path>
                <path d="M42.9368932,50.1883495 L57.7116505,50.1883495 L57.7116505,55.6592233 L42.9368932,55.6592233 L42.9368932,50.1883495 Z" id="Fill-5" fill="#FFFFFF" sketch:type="MSShapeGroup"></path>
                <path d="M22.9592233,42.4592233 L77.6873786,42.4592233 L77.6873786,43.5252427 L22.9592233,43.5252427 L22.9592233,42.4592233 Z" id="Fill-6" fill="#FFFFFF" sketch:type="MSShapeGroup"></path>
                <path d="M22.9592233,62.323301 L77.6873786,62.323301 L77.6873786,63.3893204 L22.9592233,63.3893204 L22.9592233,62.323301 Z" id="Fill-7" fill="#FFFFFF" sketch:type="MSShapeGroup"></path>
                <path d="M32.7951456,70.315534 L41.1407767,70.315534 L41.1407767,74.4184466 L32.7951456,74.4184466 L32.7951456,70.315534 Z" id="Fill-8" fill="#637988" sketch:type="MSShapeGroup"></path>
                <path d="M59.5067961,70.315534 L67.8514563,70.315534 L67.8514563,74.4184466 L59.5067961,74.4184466 L59.5067961,70.315534 Z" id="Fill-9" fill="#637988" sketch:type="MSShapeGroup"></path>
            </g>
        </g>
    </g>
</svg>