<?xml version="1.0" encoding="UTF-8" standalone="no"?>
<svg width="100px" height="100px" viewBox="0 0 100 100" version="1.1" xmlns="http://www.w3.org/2000/svg" xmlns:xlink="http://www.w3.org/1999/xlink" xmlns:sketch="http://www.bohemiancoding.com/sketch/ns">
    <!-- Generator: Sketch 3.3.3 (12081) - http://www.bohemiancoding.com/sketch -->
    <title>Imported Layers</title>
    <desc>Created with Sketch.</desc>
    <defs></defs>
    <g id="HOME" stroke="none" stroke-width="1" fill="none" fill-rule="evenodd" sketch:type="MSPage">
        <g id="Homepage-2" sketch:type="MSArtboardGroup" transform="translate(-976.000000, -945.000000)">
            <g id="Imported-Layers" sketch:type="MSLayerGroup" transform="translate(976.000000, 945.000000)">
                <path d="M99.961165,49.6339806 C99.961165,76.9815534 77.7912621,99.1514563 50.4436893,99.1514563 C23.0970874,99.1514563 0.927184466,76.9815534 0.927184466,49.6339806 C0.927184466,22.2873786 23.0970874,0.117475728 50.4436893,0.117475728 C77.7912621,0.117475728 99.961165,22.2873786 99.961165,49.6339806" id="Fill-1" fill="#FFFFC1" sketch:type="MSShapeGroup"></path>
                <path d="M50.4446602,40.668932 C50.1621359,40.668932 49.8825243,40.684466 49.6048544,40.7097087 L50.8815534,50.2417476 L41.8194175,47.1883495 C41.6,47.9679612 41.4786408,48.7854369 41.4786408,49.6339806 C41.4786408,54.5864078 45.4932039,58.5980583 50.4446602,58.5980583 C55.3970874,58.5980583 59.4097087,54.5864078 59.4097087,49.6339806 C59.4097087,44.6834951 55.3970874,40.668932 50.4446602,40.668932" id="Fill-2" fill="#637988" sketch:type="MSShapeGroup"></path>
                <path d="M79.6106796,48.2475728 C79.0854369,47.4514563 66.561165,28.7378641 50.4446602,28.7378641 C34.3262136,28.7378641 21.8038835,47.4514563 21.2776699,48.2475728 L20.3650485,49.6339806 L21.2776699,51.0184466 C21.8038835,51.8174757 34.3262136,70.5300971 50.4446602,70.5300971 C66.561165,70.5300971 79.0854369,51.8174757 79.6106796,51.0184466 L80.5242718,49.6339806 L79.6106796,48.2475728 L79.6106796,48.2475728 Z M50.4436893,64.6427184 C42.1543689,64.6427184 35.4349515,57.9223301 35.4349515,49.6339806 C35.4349515,41.3436893 42.1543689,34.6252427 50.4436893,34.6252427 C58.7330097,34.6252427 65.4533981,41.3436893 65.4533981,49.6339806 C65.4533981,57.9223301 58.7330097,64.6427184 50.4436893,64.6427184 L50.4436893,64.6427184 Z" id="Fill-3" fill="#48CFC2" sketch:type="MSShapeGroup"></path>
            </g>
        </g>
    </g>
</svg>